<svg width="102" height="63" viewBox="0 0 102 63" fill="none" xmlns="http://www.w3.org/2000/svg">
<path d="M12.2938 8.92222C11.2202 9.06651 5.36661 3.55297 2.57403 0.778162L1.49288 1.31979L10.8047 10.2151M12.2938 8.92222C13.6359 8.74185 24.7224 -1.5982 42.6874 3.51381C57.0594 7.60342 70.7143 18.8633 75.7453 23.982C79.7574 28.7259 88.3954 40.2253 90.8501 48.2714C92.3844 50.8972 96.4809 56.8419 100.593 59.6138C100.649 59.8005 100.666 60.0263 100.597 60.2358M12.2938 8.92222L15.6696 11.3698L100.597 60.2358M10.8047 10.2151C9.61335 11.2495 11.362 18.3464 12.3853 21.7656C15.3601 33.208 26.0437 43.6828 31.0137 47.49C46.087 60.0976 64.7442 60.8339 69.5581 62.0762C73.4092 63.0701 90.0318 61.5475 97.8617 60.6619C99.7448 61.1656 100.429 60.7499 100.597 60.2358M10.8047 10.2151L11.8678 10.7668M12.9309 11.3185L11.8678 10.7668M20.2975 15.5115C22.5904 23.0902 28.9853 39.8044 36.2217 46.032M20.2975 15.5115L11.8678 10.7668M20.2975 15.5115L37.7288 25.4858M37.7288 25.4858C38.8662 32.8401 44.0587 49.5285 55.7299 57.4472M37.7288 25.4858L63.979 40.4469L67.4038 42.5187L79.8576 50.0527M28.3809 18.7771C34.4383 15.6748 49.2987 10.4711 60.2807 14.4745M43.4796 27.6989C47.3673 24.6304 58.7816 20.1753 73.3377 26.9029M63.9733 39.6473C68.1001 36.6688 77.7409 32.2884 83.2894 38.5943M79.8576 50.0527C80.0423 51.8094 80.839 55.8134 82.5476 57.7755M79.8576 50.0527L100.597 60.2358M52.7786 34.7951C54.0544 39.8209 58.2294 51.4649 64.7228 57.8355" stroke="#BF9B30"/>
</svg>
