<svg width="88" height="50" viewBox="0 0 88 50" fill="none" xmlns="http://www.w3.org/2000/svg">
<path d="M77.3327 8.08422C78.2198 8.27001 83.4399 4.02593 85.939 1.88067L86.8082 2.39846L78.4965 9.25375M77.3327 8.08422C76.2238 7.85198 67.6028 -1.45112 52.3012 1.72028C40.06 4.2574 27.9803 12.8212 23.4707 16.7859C19.834 20.4999 11.9259 29.5691 9.38769 36.1334C7.94755 38.231 4.16733 42.9418 0.567565 45.0043C0.509324 45.1566 0.481466 45.344 0.525989 45.523M77.3327 8.08422L74.3668 9.92092L0.525989 45.523M78.4965 9.25375C79.4276 10.1894 77.5362 16.0047 76.4742 18.7954C73.295 28.1619 63.7425 36.2516 59.3637 39.1256C46.0184 48.7276 30.4058 48.2057 26.3133 48.9491C23.0393 49.5439 9.26191 47.2609 2.78244 46.0452C1.18048 46.3507 0.635257 45.9623 0.525989 45.523M78.4965 9.25375L77.5758 9.64931M76.6552 10.0449L77.5758 9.64931M70.253 13.095C67.8782 19.2791 61.5243 32.8362 55.1068 37.5919M70.253 13.095L77.5758 9.64931M70.253 13.095L55.1006 20.356M55.1006 20.356C53.7037 26.4233 48.3545 40.0321 38.1336 45.9287M55.1006 20.356L32.2859 31.241L29.302 32.7612L18.4515 38.2892M63.3092 15.3275C58.4437 12.37 46.361 7.12287 36.9536 9.79454M50.1672 21.8524C47.1102 19.0552 37.8573 14.6427 25.3017 19.3698M32.3393 30.5742C29.0772 27.8376 21.2996 23.5953 16.2858 28.5191M18.4515 38.2892C18.1903 39.7438 17.2818 43.0363 15.7365 44.5694M18.4515 38.2892L0.525989 45.523M41.9758 27.2073C40.6052 31.3231 36.4124 40.7848 30.6062 45.705" stroke="#BF9B30"/>
</svg>
